<?xml version="1.0" encoding="utf-8"?>
<!DOCTYPE svg PUBLIC "-//W3C//DTD SVG 1.1//EN" "http://www.w3.org/Graphics/SVG/1.1/DTD/svg11.dtd">
<svg version="1.1" id="Layer_1" xmlns="http://www.w3.org/2000/svg" xmlns:xlink="http://www.w3.org/1999/xlink" x="0px" y="0px"
	 width="18.997px" height="20px" viewBox="0 0 18.997 20" enable-background="new 0 0 18.997 20" xml:space="preserve" style="fill:#b9bdbf">
<path d="M10.62,10l8.148-8.627c0.305-0.313,0.305-0.823,0-1.137c-0.306-0.314-0.8-0.314-1.105,0L9.498,8.638L1.334,0.235
	c-0.305-0.314-0.8-0.314-1.105,0c-0.305,0.314-0.305,0.824,0,1.137L8.376,10l-8.147,8.626c-0.305,0.314-0.305,0.823,0,1.138
	c0.305,0.313,0.8,0.314,1.105,0l8.164-8.403l8.164,8.403c0.305,0.314,0.801,0.313,1.105,0c0.305-0.314,0.305-0.823,0-1.138L10.62,10
	z"/>
</svg>
