<?xml version="1.0" encoding="utf-8"?>
<!DOCTYPE svg PUBLIC "-//W3C//DTD SVG 1.1//EN" "http://www.w3.org/Graphics/SVG/1.1/DTD/svg11.dtd">
<svg version="1.1" id="Layer_1" xmlns="http://www.w3.org/2000/svg" xmlns:xlink="http://www.w3.org/1999/xlink" x="0px" y="0px"
	 width="23.859px" height="24px" viewBox="0 0 23.859 24" enable-background="new 0 0 23.859 24" xml:space="preserve">
<path fill="#FFFFFF" d="M11.93,0C5.34,0,0,5.373,0,12c0,6.628,5.34,12,11.93,12c6.588,0,11.93-5.373,11.93-12
	C23.859,5.373,18.518,0,11.93,0z M16.781,9.831c0.005,0.102,0.007,0.204,0.007,0.306c0,3.123-2.363,6.725-6.685,6.725
	c-1.327,0-2.562-0.392-3.602-1.062c0.184,0.022,0.371,0.033,0.56,0.033c1.101,0,2.114-0.378,2.918-1.012
	c-1.028-0.019-1.896-0.703-2.195-1.642c0.144,0.028,0.291,0.042,0.442,0.042c0.214,0,0.421-0.029,0.619-0.083
	c-1.075-0.217-1.885-1.172-1.885-2.317c0-0.01,0-0.02,0.001-0.03c0.316,0.177,0.679,0.284,1.064,0.295
	C7.395,10.663,6.98,9.94,6.98,9.12c0-0.433,0.116-0.839,0.318-1.188c1.158,1.43,2.89,2.371,4.843,2.47
	c-0.04-0.173-0.061-0.354-0.061-0.539c0-1.305,1.052-2.364,2.349-2.364c0.676,0,1.287,0.287,1.715,0.747
	c0.535-0.106,1.039-0.303,1.492-0.574c-0.176,0.552-0.548,1.015-1.033,1.308c0.476-0.057,0.929-0.184,1.35-0.372
	C17.639,9.081,17.241,9.498,16.781,9.831z"/>
</svg>
