<svg version="1.1"  xmlns="http://www.w3.org/2000/svg" xmlns:xlink="http://www.w3.org/1999/xlink" x="0px" y="0px"      style="fill: #0298b3" width="29.999px" height="29.999px" viewBox="0 0 29.999 29.999" enable-background="new 0 0 29.999 29.999" xml:space="preserve"><path d="M14.799,0.001C6.516,0.113-0.109,6.917,0.001,15.2c0.11,8.283,6.915,14.909,15.198,14.798s14.908-6.915,14.798-15.199 C29.887,6.516,23.082-0.109,14.799,0.001z M15.158,26.84c-6.54,0.087-11.911-5.143-11.999-11.683 C3.071,8.619,8.302,3.247,14.841,3.159C21.38,3.072,26.752,8.302,26.84,14.841S21.697,26.752,15.158,26.84z M7.895,22.038 c0,0,7.139-0.981,10.184-4.026c3.045-3.045,4.026-10.184,4.026-10.184s-7.138,0.981-10.183,4.026 C8.875,14.899,7.895,22.038,7.895,22.038z M13.46,13.393c1.28-1.28,3.728-2.189,5.827-2.753c-0.565,2.095-1.478,4.562-2.749,5.832 c-0.85,0.85-2.228,0.851-3.078,0C12.61,15.622,12.61,14.244,13.46,13.393z"/></svg>