<svg version="1.1" xmlns="http://www.w3.org/2000/svg" xmlns:xlink="http://www.w3.org/1999/xlink" style="fill: #0298b3" x="0px" y="0px" width="32.964px" height="29.4px" viewBox="0 0 32.964 29.4" enable-background="new 0 0 32.964 29.4" xml:space="preserve"><path d="M32.964,29.4c0,0-0.065-6.326-0.446-6.981c-0.567-0.977-1.888-1.648-4.341-2.686c-2.444-1.036-3.226-1.91-3.226-3.781 c0-1.124,0.746-0.756,1.075-2.813c0.136-0.853,0.795-0.014,0.921-1.961c0-0.777-0.359-0.97-0.359-0.97s0.183-1.148,0.254-2.032 c0.089-1.102-0.548-3.948-3.941-3.948c-3.394,0-4.029,2.846-3.941,3.948c0.072,0.885,0.254,2.032,0.254,2.032 s-0.359,0.193-0.359,0.97c0.126,1.947,0.785,1.108,0.921,1.961c0.328,2.057,1.075,1.689,1.075,2.813 c0,1.272-0.363,2.083-1.364,2.798c5.341,2.71,6.057,3.262,6.057,5.685V29.4H32.964z M16.85,20.673 c-3.26-1.381-4.302-2.546-4.302-5.04c0-1.498,0.995-1.009,1.433-3.751c0.181-1.137,1.06-0.019,1.228-2.615 c0-1.035-0.479-1.292-0.479-1.292s0.244-1.531,0.339-2.71C15.187,3.794,14.339,0,9.814,0C5.29,0,4.44,3.794,4.56,5.263 c0.095,1.179,0.338,2.71,0.338,2.71S4.418,8.231,4.418,9.266c0.168,2.597,1.047,1.478,1.229,2.615 c0.438,2.742,1.433,2.253,1.433,3.751c0,2.494-1.042,3.659-4.302,5.04C1.785,21.094,0,21.745,0,23.314V29.4h22.899 c0,0,0-3.6,0-4.563C22.899,23.406,20.12,22.059,16.85,20.673z"/></svg>