<?xml version="1.0" encoding="utf-8"?>
<!DOCTYPE svg PUBLIC "-//W3C//DTD SVG 1.1//EN" "http://www.w3.org/Graphics/SVG/1.1/DTD/svg11.dtd">
<svg version="1.1" id="Layer_1" xmlns="http://www.w3.org/2000/svg" xmlns:xlink="http://www.w3.org/1999/xlink" x="0px" y="0px"
	 width="23.86px" height="24px" viewBox="0 0 23.86 24" enable-background="new 0 0 23.86 24" xml:space="preserve">
<g>
	<path fill="#FFFFFF" d="M11.93,0C5.341,0,0,5.373,0,12c0,6.628,5.341,12,11.93,12c6.589,0,11.93-5.373,11.93-12
		C23.86,5.373,18.519,0,11.93,0z M11.243,17.152c-0.749,0.366-1.557,0.406-1.869,0.406c-0.059,0-0.094-0.001-0.099-0.001
		c0,0-0.022,0-0.061,0c-0.486,0-2.911-0.112-2.911-2.334c0-2.183,2.64-2.353,3.45-2.353l0.021,0c-0.467-0.627-0.37-1.261-0.37-1.261
		c-0.041,0.003-0.101,0.006-0.175,0.006c-0.305,0-0.892-0.049-1.397-0.377C7.213,10.838,6.9,10.157,6.9,9.214
		c0-2.663,2.891-2.771,2.92-2.771h2.888v0.063c0,0.325-0.58,0.387-0.976,0.441c-0.133,0.019-0.403,0.047-0.479,0.086
		c0.731,0.392,0.849,1.01,0.849,1.93c0,1.047-0.408,1.601-0.84,1.99c-0.267,0.241-0.478,0.431-0.478,0.684
		c0,0.248,0.29,0.503,0.624,0.798c0.548,0.485,1.3,1.148,1.3,2.263C12.708,15.852,12.215,16.678,11.243,17.152z M17.557,11.989
		h-1.884v1.895H14.48v-1.895h-1.884v-1.2h1.884V8.894h1.193v1.895h1.884V11.989z"/>
	<path fill="#FFFFFF" d="M10.808,8.606c-0.3-1.062-0.785-1.376-1.539-1.376c-0.082,0-0.163,0.011-0.242,0.034
		C8.701,7.356,8.442,7.63,8.297,8.037C8.15,8.451,8.14,8.88,8.268,9.372c0.229,0.875,0.848,1.511,1.472,1.511
		c0.082,0,0.163-0.011,0.241-0.033C10.664,10.656,11.091,9.608,10.808,8.606z"/>
	<path fill="#FFFFFF" d="M9.721,13.439c-0.064,0-0.129,0.003-0.195,0.007c-0.552,0.041-1.061,0.249-1.43,0.586
		c-0.365,0.333-0.552,0.75-0.525,1.177c0.055,0.887,1.004,1.409,2.156,1.324c1.134-0.083,1.89-0.738,1.834-1.627
		C11.509,14.07,10.787,13.439,9.721,13.439z"/>
</g>
</svg>
