<?xml version="1.0" encoding="utf-8"?>
<!-- Generator: Adobe Illustrator 15.1.0, SVG Export Plug-In . SVG Version: 6.00 Build 0)  -->
<!DOCTYPE svg PUBLIC "-//W3C//DTD SVG 1.1//EN" "http://www.w3.org/Graphics/SVG/1.1/DTD/svg11.dtd">
<svg version="1.1" id="Layer_1" xmlns="http://www.w3.org/2000/svg" xmlns:xlink="http://www.w3.org/1999/xlink" x="0px" y="0px"
	 width="92px" height="92px" viewBox="0 0 92 92" enable-background="new 0 0 92 92" xml:space="preserve">
<g>
	<defs>
		<rect id="SVGID_1_" y="0" width="92" height="92.001"/>
	</defs>
	<clipPath id="SVGID_2_">
		<use xlink:href="#SVGID_1_"  overflow="visible"/>
	</clipPath>
	<path clip-path="url(#SVGID_2_)" fill="#888888" d="M45.384,0.004C19.982,0.344-0.333,21.215,0.004,46.62
		c0.34,25.393,21.209,45.715,46.611,45.377c25.398-0.343,45.718-21.214,45.381-46.615C91.656,19.986,70.785-0.335,45.384,0.004
		 M50.484,15.333c4.676,0,6.056,2.714,6.056,5.815c0,3.877-3.103,7.461-8.396,7.461c-4.43,0-6.537-2.229-6.414-5.91
		C41.73,19.597,44.33,15.333,50.484,15.333 M38.497,74.75c-3.195,0-5.537-1.938-3.301-10.468l3.666-15.125
		c0.637-2.424,0.744-3.392,0-3.392c-0.959,0-5.107,1.673-7.556,3.322l-1.598-2.617c7.773-6.491,16.711-10.299,20.543-10.299
		c3.196,0,3.728,3.779,2.132,9.594l-4.199,15.9c-0.744,2.811-0.424,3.778,0.317,3.778c0.961,0,4.103-1.166,7.188-3.59l1.81,2.424
		C49.939,71.838,41.689,74.75,38.497,74.75"/>
</g>
</svg>
