<svg version="1.1" id="Layer_1" xmlns="http://www.w3.org/2000/svg" xmlns:xlink="http://www.w3.org/1999/xlink" x="0px" y="0px"
	 width="30.846px" height="32.565px" viewBox="0 0 30.846 32.565" enable-background="new 0 0 30.846 32.565" xml:space="preserve">
<g>
	<defs>
		<rect id="SVGID_1_" y="0" width="30.846" height="32.565"/>
	</defs>
	<clipPath id="SVGID_2_">
		<use xlink:href="#SVGID_1_"  overflow="visible"/>
	</clipPath>
	<path clip-path="url(#SVGID_2_)" fill="#7498AA" d="M24.29,22.343c-4.095-1.493-5.402-2.752-5.402-5.447
		c0-1.618,1.251-1.091,1.798-4.054c0.228-1.23,1.333-0.021,1.544-2.827c0-1.118-0.602-1.397-0.602-1.397s0.305-1.655,0.427-2.929
		C22.202,4.102,21.137,0,15.451,0C9.767,0,8.702,4.102,8.85,5.689c0.121,1.274,0.426,2.929,0.426,2.929s-0.603,0.279-0.603,1.397
		c0.213,2.806,1.316,1.597,1.545,2.827c0.548,2.963,1.799,2.436,1.799,4.054c0,2.695-1.309,3.954-5.404,5.447v6.687l8.896,3.536
		l8.781-3.536"/>
	<path clip-path="url(#SVGID_2_)" fill="#FFFFFF" d="M15.353,32.479c0.041,0,0.08-0.006,0.121-0.006l-4.762-12.441
		c0,0-8.181,2.591-10.441,3.945C0.172,24.09,0.084,24.237,0,24.398C3.362,29.276,8.98,32.479,15.353,32.479"/>
	<path clip-path="url(#SVGID_2_)" fill="#FFFFFF" d="M20.249,20.031l-4.704,12.438c6.379-0.065,11.99-3.328,15.301-8.271
		c-0.05-0.079-0.101-0.158-0.156-0.222C28.431,22.623,20.249,20.031,20.249,20.031"/>
	<polygon clip-path="url(#SVGID_2_)" fill="#DADADA" points="11.899,18.12 15.508,32.565 7.86,25.252 9.689,23.843 7.248,23.603 	
		"/>
	<polygon clip-path="url(#SVGID_2_)" fill="#FFFFFF" points="11.899,18.12 15.508,32.565 8.656,24.915 11.224,23.127 8.413,22.944 	
		"/>
	<polygon clip-path="url(#SVGID_2_)" fill="#DADADA" points="19.071,18.12 15.462,32.565 23.149,25.248 21.281,23.843 
		23.722,23.603 	"/>
	<polygon clip-path="url(#SVGID_2_)" fill="#FFFFFF" points="19.071,18.12 15.462,32.565 22.313,24.915 19.746,23.127 
		22.557,22.944 	"/>
</g>
</svg>