<?xml version="1.0" encoding="utf-8"?>
<!-- Generator: Adobe Illustrator 15.1.0, SVG Export Plug-In . SVG Version: 6.00 Build 0)  -->
<!DOCTYPE svg PUBLIC "-//W3C//DTD SVG 1.1//EN" "http://www.w3.org/Graphics/SVG/1.1/DTD/svg11.dtd">
<svg version="1.1" id="Layer_1" xmlns="http://www.w3.org/2000/svg" xmlns:xlink="http://www.w3.org/1999/xlink" x="0px" y="0px"
	 width="22px" height="21px" viewBox="0 0 22 21" enable-background="new 0 0 22 21" xml:space="preserve">
<path fill="#FFFFFF" d="M17.226,15.689c-2.885-1.049-3.807-1.933-3.807-3.826c0-1.136,0.881-0.765,1.268-2.847
	c0.161-0.863,0.938-0.014,1.087-1.985c0-0.785-0.424-0.98-0.424-0.98s0.216-1.163,0.3-2.057C15.754,2.88,15.004,0,11,0
	S6.245,2.88,6.35,3.995c0.084,0.895,0.3,2.057,0.3,2.057s-0.424,0.195-0.424,0.98c0.148,1.971,0.926,1.122,1.087,1.985
	c0.387,2.081,1.268,1.71,1.268,2.847c0,1.893-0.922,2.777-3.807,3.826C1.88,16.741,0,17.813,0,18.544C0,19.274,0,21,0,21h11h11
	c0,0,0-1.726,0-2.456C22,17.813,20.12,16.741,17.226,15.689z"/>
</svg>
