<?xml version="1.0" encoding="utf-8"?>
<!-- Generator: Adobe Illustrator 15.1.0, SVG Export Plug-In . SVG Version: 6.00 Build 0)  -->
<!DOCTYPE svg PUBLIC "-//W3C//DTD SVG 1.1//EN" "http://www.w3.org/Graphics/SVG/1.1/DTD/svg11.dtd">
<svg version="1.1" id="Layer_1" xmlns="http://www.w3.org/2000/svg" xmlns:xlink="http://www.w3.org/1999/xlink" x="0px" y="0px"
	 width="205.904px" height="35.956px" viewBox="0 0 205.904 35.956" enable-background="new 0 0 205.904 35.956"
	 xml:space="preserve">
<g>
	<defs>
		<rect id="SVGID_1_" y="0" width="205.904" height="35.956"/>
	</defs>
	<clipPath id="SVGID_2_">
		<use xlink:href="#SVGID_1_"  overflow="visible"/>
	</clipPath>
	<path clip-path="url(#SVGID_2_)" fill="#FFFFFF" d="M17.571,0C6.241,0,0,5.374,0,15.133c0,8.174,4.381,13.27,12.461,14.711
		c-1.13,2.929-3.198,6.111-3.198,6.111s13.767-5.252,18.216-7.593c5.001-2.356,7.663-6.858,7.663-13.229
		C35.142,5.374,28.9,0,17.571,0 M25.184,16.103c0,0.75-0.609,1.36-1.359,1.36h-3.784c-0.077,0-0.14,0.062-0.14,0.139v3.784
		c0,0.75-0.61,1.361-1.36,1.361h-1.94c-0.751,0-1.36-0.611-1.36-1.361v-3.784c0-0.077-0.063-0.139-0.14-0.139h-3.784
		c-0.75,0-1.36-0.61-1.36-1.36v-1.94c0-0.75,0.61-1.361,1.36-1.361h3.784c0.077,0,0.14-0.062,0.14-0.139V8.879
		c0-0.75,0.609-1.359,1.36-1.359h1.94c0.75,0,1.36,0.609,1.36,1.359v3.784c0,0.077,0.063,0.139,0.14,0.139h3.784
		c0.75,0,1.359,0.611,1.359,1.361V16.103z"/>
	<path clip-path="url(#SVGID_2_)" fill="#FFFFFF" d="M54.165,16.589v6.867c0,0.464-0.36,0.823-0.823,0.823s-0.824-0.359-0.824-0.823
		v-6.532c0-2.032-0.59-3.421-3.086-3.421c-2.546,0-3.42,1.543-3.42,3.6v6.353c0,0.464-0.36,0.823-0.823,0.823
		c-0.463,0-0.823-0.359-0.823-0.823V6.585c0-0.464,0.36-0.823,0.823-0.823c0.463,0,0.823,0.359,0.823,0.823v7.252
		c0.488-0.976,1.749-1.799,3.42-1.799C53.393,12.039,54.165,14.404,54.165,16.589"/>
	<path clip-path="url(#SVGID_2_)" fill="#FFFFFF" d="M59.208,14.892c-0.257,0.283-0.437,0.36-0.669,0.36
		c-0.411,0-0.746-0.335-0.746-0.747c0-0.178,0.052-0.308,0.129-0.437c0.72-1.13,2.108-2.03,4.27-2.03
		c2.983,0,4.629,1.749,4.629,4.372v7.072c0,0.438-0.36,0.797-0.797,0.797s-0.798-0.358-0.798-0.797v-0.926
		c-0.643,1.209-2.134,1.853-3.678,1.853c-2.726,0-4.449-1.312-4.449-3.68c0-2.262,1.723-3.625,4.502-3.625h3.625V16.41
		c0-1.749-1.157-2.829-3.034-2.829C60.828,13.581,60.005,13.993,59.208,14.892 M65.226,19.625v-1.081h-3.625
		c-1.673,0-2.83,0.693-2.83,2.185c0,1.339,0.925,2.188,2.932,2.188C63.503,22.917,65.226,21.812,65.226,19.625"/>
	<path clip-path="url(#SVGID_2_)" fill="#FFFFFF" d="M72.198,6.585V21.27c0,1.028,0.334,1.467,1.028,1.467
		c0.412,0,0.772,0.335,0.772,0.771s-0.36,0.771-0.772,0.771c-1.723,0-2.674-1.029-2.674-3.01V6.585c0-0.438,0.385-0.823,0.823-0.823
		C71.837,5.762,72.198,6.147,72.198,6.585"/>
	<path clip-path="url(#SVGID_2_)" fill="#FFFFFF" d="M86.858,18.211c0,4.217-2.057,6.198-5.401,6.198
		c-3.318,0-5.401-1.98-5.401-6.198c0-4.218,2.083-6.173,5.401-6.173C84.801,12.038,86.858,13.993,86.858,18.211 M85.187,18.211
		c0-3.242-1.363-4.682-3.729-4.682c-2.366,0-3.73,1.44-3.73,4.682c0,3.292,1.364,4.707,3.73,4.707
		C83.823,22.917,85.187,21.502,85.187,18.211"/>
	<path clip-path="url(#SVGID_2_)" fill="#FFFFFF" d="M97.199,13.065V7.15c0-0.772,0.617-1.388,1.389-1.388
		c0.771,0,1.389,0.616,1.389,1.388v12.114c0,3.42-2.212,5.145-5.324,5.145c-3.472,0-5.504-1.981-5.504-6.173s1.98-6.197,5.221-6.197
		C95.604,12.038,96.685,12.551,97.199,13.065 M97.199,15.714c0,0-1.003-1.31-2.546-1.31c-1.749,0-2.752,1.285-2.752,3.831
		c0,2.52,0.977,3.807,2.752,3.807c1.492,0,2.546-1.003,2.546-2.778V15.714z"/>
	<path clip-path="url(#SVGID_2_)" fill="#FFFFFF" d="M108.157,24.409c-3.472,0-5.632-1.981-5.632-6.173
		c0-4.216,2.16-6.197,5.632-6.197c3.473,0,5.633,1.981,5.633,6.197C113.79,22.427,111.63,24.409,108.157,24.409 M108.157,14.404
		c-1.852,0-2.829,1.285-2.829,3.831c0,2.52,0.978,3.807,2.829,3.807c1.853,0,2.829-1.287,2.829-3.807
		C110.986,15.689,110.01,14.404,108.157,14.404"/>
	<path clip-path="url(#SVGID_2_)" fill="#FFFFFF" d="M123.899,23.741l-3.832-5.144l-0.823,0.642v3.704
		c0,0.771-0.617,1.337-1.388,1.337c-0.799,0-1.391-0.565-1.391-1.337V7.1c0-0.771,0.592-1.337,1.391-1.337
		c0.771,0,1.388,0.566,1.388,1.337v9.078l4.655-3.651c0.335-0.258,0.592-0.335,0.901-0.335c0.744,0,1.337,0.591,1.337,1.338
		c0,0.385-0.181,0.798-0.515,1.055l-3.37,2.572l3.78,4.962c0.206,0.283,0.284,0.565,0.284,0.824c0,0.744-0.591,1.337-1.337,1.337
		C124.491,24.28,124.131,24.047,123.899,23.741"/>
	<path clip-path="url(#SVGID_2_)" fill="#FFFFFF" d="M129.533,10.237c0-0.746,0.618-1.364,1.364-1.364
		c0.745,0,1.361,0.618,1.361,1.364v2.16h1.158c0.644,0,1.157,0.515,1.157,1.158c0,0.642-0.514,1.157-1.157,1.157h-1.158v6.225
		c0,0.591,0.516,0.926,0.979,0.926c0.669,0,1.209,0.539,1.209,1.208c0,0.67-0.54,1.209-1.209,1.209
		c-2.289,0-3.704-1.465-3.704-3.498v-6.07h-0.591c-0.644,0-1.157-0.515-1.157-1.157c0-0.643,0.514-1.158,1.157-1.158h0.591V10.237z"
		/>
	<path clip-path="url(#SVGID_2_)" fill="#FFFFFF" d="M142.24,24.409c-3.473,0-5.632-1.981-5.632-6.173
		c0-4.216,2.159-6.197,5.632-6.197c3.472,0,5.632,1.981,5.632,6.197C147.872,22.427,145.712,24.409,142.24,24.409 M142.24,14.404
		c-1.853,0-2.829,1.285-2.829,3.831c0,2.52,0.977,3.807,2.829,3.807c1.852,0,2.829-1.287,2.829-3.807
		C145.069,15.689,144.092,14.404,142.24,14.404"/>
	<path clip-path="url(#SVGID_2_)" fill="#FFFFFF" d="M153.326,13.71c0.489-1.004,1.698-1.648,2.778-1.648
		c0.72,0,1.313,0.593,1.313,1.313c0,0.72-0.593,1.312-1.313,1.312c-1.773,0-2.778,1.131-2.778,2.854v5.35
		c0,0.771-0.616,1.388-1.388,1.388s-1.39-0.616-1.39-1.388v-9.31c0-0.772,0.618-1.39,1.39-1.39s1.388,0.618,1.388,1.39V13.71z"/>
	<path clip-path="url(#SVGID_2_)" fill="#FFFFFF" d="M160.529,12.397h6.609c0.669,0,1.234,0.565,1.234,1.235
		c0,0.36-0.128,0.591-0.282,0.797l-5.427,7.278h4.681c0.644,0,1.184,0.541,1.184,1.184c0,0.644-0.54,1.183-1.184,1.183h-7.098
		c-0.644,0-1.184-0.539-1.184-1.183c0-0.358,0.129-0.566,0.282-0.771l5.529-7.408h-4.346c-0.644,0-1.157-0.514-1.157-1.156
		C159.372,12.911,159.886,12.397,160.529,12.397"/>
	<path clip-path="url(#SVGID_2_)" fill="#FFFFFF" d="M176.116,12.038c4.347,0,5.144,3.343,5.144,5.118c0,0.95,0,2.058-1.567,2.058
		h-6.354c0,1.852,1.313,2.701,3.011,2.701c1.132,0,1.929-0.388,2.546-0.8c0.282-0.18,0.488-0.281,0.822-0.281
		c0.669,0,1.209,0.54,1.209,1.208c0,0.412-0.206,0.746-0.437,0.952c-0.438,0.409-1.801,1.413-4.141,1.413
		c-3.575,0-5.787-1.928-5.787-6.223C170.562,14.249,172.618,12.038,176.116,12.038 M173.416,16.898h5.093
		c0-1.259-0.72-2.494-2.393-2.494C174.625,14.404,173.544,15.252,173.416,16.898"/>
	<path clip-path="url(#SVGID_2_)" fill="#FFFFFF" d="M183.397,23.071c0-0.848,0.463-1.234,1.208-1.234
		c0.747,0,1.21,0.387,1.21,1.234c0,0.85-0.463,1.208-1.21,1.208C183.86,24.279,183.397,23.92,183.397,23.071"/>
	<path clip-path="url(#SVGID_2_)" fill="#FFFFFF" d="M190.624,13.015v0.823c0.489-0.875,1.775-1.799,3.499-1.799
		c3.343,0,5.375,1.954,5.375,6.172c0,4.217-2.032,6.198-5.375,6.198c-1.724,0-2.958-0.926-3.499-1.801v5.813
		c0,0.438-0.385,0.823-0.822,0.823s-0.822-0.385-0.822-0.823V13.015c0-0.464,0.385-0.823,0.822-0.823S190.624,12.551,190.624,13.015
		 M194.123,22.917c2.366,0,3.703-1.493,3.703-4.707c0-3.215-1.389-4.681-3.754-4.681c-1.904,0-3.498,1.337-3.498,4.681
		C190.574,21.528,192.116,22.917,194.123,22.917"/>
	<path clip-path="url(#SVGID_2_)" fill="#FFFFFF" d="M204.104,6.585V21.27c0,1.028,0.334,1.467,1.028,1.467
		c0.412,0,0.771,0.335,0.771,0.771s-0.359,0.771-0.771,0.771c-1.724,0-2.674-1.029-2.674-3.01V6.585
		c0-0.438,0.385-0.823,0.821-0.823C203.743,5.762,204.104,6.147,204.104,6.585"/>
</g>
</svg>
