<?xml version="1.0" encoding="utf-8"?>
<!DOCTYPE svg PUBLIC "-//W3C//DTD SVG 1.1//EN" "http://www.w3.org/Graphics/SVG/1.1/DTD/svg11.dtd">
<svg version="1.1" id="Layer_1" xmlns="http://www.w3.org/2000/svg" xmlns:xlink="http://www.w3.org/1999/xlink" x="0px" y="0px"
	 width="23.977px" height="23.989px" viewBox="0 0 23.977 23.989" enable-background="new 0 0 23.977 23.989" xml:space="preserve">
<path fill="#3FA1D6" d="M23.438,20.295l-5.735-5.737c0.865-1.421,1.363-3.09,1.363-4.876C19.066,4.495,14.573,0,9.388,0
	C4.204,0,0,4.206,0,9.394s4.493,9.682,9.677,9.682c1.724,0,3.338-0.467,4.727-1.279l5.766,5.769c0.564,0.564,1.479,0.564,2.042,0
	l1.431-1.43C24.207,21.571,24.002,20.86,23.438,20.295z M2.889,9.394c0-3.592,2.91-6.503,6.499-6.503c3.59,0,6.789,3.2,6.789,6.792
	c0,3.591-2.91,6.503-6.5,6.503C6.088,16.185,2.889,12.985,2.889,9.394z"/>
</svg>