<svg version="1.1" class="time-icon" style="fill:#2190D0" xmlns="http://www.w3.org/2000/svg" xmlns:xlink="http://www.w3.org/1999/xlink" x="0px" y="0px"    width="32px" height="32px" viewBox="0 0 32 32" enable-background="new 0 0 32 32" xml:space="preserve">   <path d="M15.117,0.435c-8.218,0-14.882,6.619-14.882,14.783C0.235,23.382,6.899,30,15.117,30C23.337,30,30,23.382,30,15.217 C30,7.054,23.337,0.435,15.117,0.435z M15.117,26.787c-6.432,0-11.646-5.18-11.646-11.57c0-6.389,5.215-11.569,11.646-11.569 c6.434,0,11.647,5.18,11.647,11.569C26.765,21.607,21.551,26.787,15.117,26.787z"/>   <path d="M16.25,6.862h-2.265v8.821l5.509,5.471l1.601-1.59l-4.845-4.813V6.862z"/>   </svg>   